<svg width="35" height="32" viewBox="0 0 35 32" xmlns="http://www.w3.org/2000/svg"><title>linkedin-logo</title><path d="M8.05 3.849c0 1.849-1.488 3.345-3.938 3.345-2.304 0-3.79-1.498-3.79-3.345C.322 1.957 1.858.505 4.21.505s3.792 1.45 3.84 3.344zM.511 31.362V9.835h7.3v21.527H.51zm11.667-14.658a135.1 135.1 0 0 0-.191-6.869h6.336l.337 2.995h.143c.96-1.41 3.314-3.478 7.25-3.478 4.802 0 8.403 2.95 8.403 9.289v12.721H27.16v-11.93c0-2.772-1.058-4.665-3.697-4.665-2.017 0-3.216 1.276-3.745 2.511-.193.439-.24 1.057-.24 1.672v12.412H12.18V16.704h-.002z" fill="#FFF" fill-rule="evenodd"/></svg>