<svg width="102" height="79" viewBox="0 0 102 79" xmlns="http://www.w3.org/2000/svg"><title>toolbox</title><path d="M97.856 18.598h-25.37v-7.44C72.486 5.007 67.61 0 61.613 0H39.867c-5.995 0-10.873 5.006-10.873 11.159v7.44H3.624C1.623 18.598 0 20.262 0 22.317v14.878c0 2.054 1.623 3.72 3.624 3.72v33.477c0 2.054 1.623 3.72 3.625 3.72h86.983c2.002 0 3.624-1.666 3.624-3.72V40.916c2.002 0 3.625-1.666 3.625-3.72V22.318c0-2.055-1.623-3.72-3.625-3.72zm-65.237-7.44c0-4.108 3.245-7.438 7.248-7.438h21.746c4.003 0 7.249 3.33 7.249 7.439v7.44h-3.624v-7.44c0-2.054-1.623-3.72-3.625-3.72H39.867c-2.001 0-3.624 1.666-3.624 3.72v7.44H32.62v-7.44zm28.994 0v7.44H39.867v-7.44h21.746zm32.619 63.235H7.249V40.916h36.243v5.58c0 4.101 3.251 7.439 7.248 7.439 3.997 0 7.249-3.338 7.249-7.44v-5.579h36.243v33.477zM54.365 44.636v1.86c0 2.054-1.623 3.719-3.625 3.719-2.001 0-3.624-1.665-3.624-3.72v-1.86h7.249zm-7.249-3.72v-7.44h7.249v7.44h-7.249zm50.74-3.72H57.99v-3.72c0-2.054-1.623-3.719-3.624-3.719h-7.249c-2.002 0-3.624 1.665-3.624 3.72v3.72H3.624v-14.88h94.232v14.88z" fill="#FFF" fill-rule="evenodd"/></svg>