<?xml version="1.0" standalone="no"?>
<!DOCTYPE svg PUBLIC "-//W3C//DTD SVG 1.1//EN" "http://www.w3.org/Graphics/SVG/1.1/DTD/svg11.dtd" >
<svg xmlns="http://www.w3.org/2000/svg">
<metadata>Generated by IcoMoon</metadata>
<defs>
<font id="PS-Fonts" horiz-adv-x="1024">
<font-face units-per-em="1024" ascent="960" descent="-64" />
<missing-glyph horiz-adv-x="1024" />
<glyph unicode="&#x20;" horiz-adv-x="512" d="" />
<glyph unicode="&#xe900;" glyph-name="code" horiz-adv-x="1419" d="M1386.309 960h-1354.802c-17.392 0-31.507-14.177-31.507-31.646v-743.679c0-17.469 14.115-31.646 31.507-31.646h464.729v-174.053h-118.151c-8.712 0-15.754-7.073-15.754-15.823s7.042-15.823 15.754-15.823h661.648c8.712 0 15.754 7.073 15.754 15.823s-7.042 15.823-15.754 15.823h-118.151v174.053h464.729c17.392 0 31.507 14.177 31.507 31.646v743.679c0 17.469-14.115 31.646-31.507 31.646v0zM31.507 928.354h1354.802v-31.646h-1354.802v31.646zM31.507 865.062h1354.802v-585.45h-1354.802v585.45zM527.743-21.024v174.053h362.331v-174.053h-362.331zM1386.309 184.675h-1354.802v63.292h1354.802v-63.292zM544.669 675.067c-6.16 6.187-16.116 6.187-22.275 0l-111.393-111.884c-6.16-6.187-6.16-16.187 0-22.374l111.393-111.884c3.072-3.085 7.105-4.636 11.138-4.636s8.066 1.551 11.138 4.636c6.16 6.187 6.16 16.187 0 22.374l-100.255 100.697 100.255 100.697c6.16 6.187 6.16 16.203 0 22.374v0zM893.84 675.067c-6.16 6.187-16.116 6.187-22.275 0s-6.16-16.187 0-22.374l100.255-100.697-100.255-100.697c-6.16-6.187-6.16-16.187 0-22.374 3.072-3.085 7.105-4.636 11.138-4.636s8.066 1.551 11.138 4.636l111.393 111.884c6.16 6.187 6.16 16.187 0 22.374l-111.393 111.884zM612.14 398.426l208.575 276.789c5.243 6.957 3.832 16.838-3.156 22.104s-16.875 3.899-22.117-3.059l-208.575-276.789c-5.243-6.957-3.832-16.838 3.156-22.104s16.875-3.899 22.117 3.059v0z" />
<glyph unicode="&#xe901;" glyph-name="codepen-logo-bordered" d="M499.211 960c-275.711 0-499.211-223.5-499.211-499.211 0-275.715 223.5-499.207 499.211-499.207 275.707 0 499.207 223.492 499.207 499.207 0 275.711-223.5 499.211-499.207 499.211v0zM499.211 43.566c-230.060 0-417.221 187.169-417.221 417.223 0 230.052 187.161 417.221 417.221 417.221 230.052 0 417.215-187.169 417.215-417.221 0-230.054-187.161-417.223-417.215-417.223v0zM807.645 558.292c-0.056 0.389-0.152 0.763-0.218 1.152-0.13 0.747-0.27 1.494-0.463 2.224-0.114 0.439-0.276 0.861-0.411 1.282-0.212 0.651-0.423 1.3-0.683 1.933-0.182 0.439-0.391 0.877-0.593 1.3-0.28 0.599-0.569 1.184-0.903 1.751-0.244 0.423-0.501 0.831-0.753 1.234-0.359 0.553-0.723 1.090-1.122 1.609-0.292 0.387-0.599 0.779-0.907 1.152-0.423 0.485-0.863 0.972-1.326 1.43-0.347 0.355-0.691 0.713-1.054 1.040-0.487 0.437-0.99 0.861-1.502 1.264-0.395 0.31-0.789 0.619-1.202 0.911-0.156 0.098-0.292 0.228-0.439 0.325l-282.145 188.096c-8.914 5.943-20.515 5.943-29.429 0l-282.143-188.094c-0.146-0.098-0.284-0.228-0.437-0.325-0.415-0.292-0.805-0.601-1.194-0.911-0.519-0.405-1.022-0.829-1.502-1.264-0.373-0.327-0.713-0.683-1.064-1.040-0.461-0.457-0.901-0.945-1.314-1.43-0.317-0.375-0.625-0.765-0.917-1.152-0.389-0.519-0.765-1.056-1.112-1.609-0.268-0.405-0.519-0.811-0.763-1.234-0.325-0.567-0.617-1.152-0.901-1.751-0.204-0.421-0.415-0.861-0.593-1.3-0.26-0.633-0.471-1.282-0.681-1.933-0.14-0.421-0.292-0.843-0.415-1.282-0.194-0.731-0.323-1.478-0.461-2.224-0.064-0.389-0.162-0.763-0.212-1.152-0.154-1.136-0.244-2.288-0.244-3.459v-188.096c0-1.168 0.088-2.32 0.244-3.474 0.050-0.375 0.148-0.763 0.212-1.134 0.138-0.747 0.268-1.494 0.461-2.224 0.124-0.439 0.276-0.863 0.415-1.284 0.21-0.647 0.421-1.298 0.681-1.947 0.178-0.443 0.389-0.865 0.593-1.288 0.286-0.599 0.577-1.182 0.901-1.767 0.244-0.407 0.495-0.811 0.763-1.218 0.347-0.551 0.723-1.088 1.112-1.609 0.292-0.405 0.601-0.781 0.917-1.152 0.415-0.485 0.853-0.974 1.314-1.43 0.349-0.355 0.691-0.713 1.064-1.038 0.479-0.441 0.982-0.863 1.502-1.268 0.389-0.31 0.781-0.619 1.194-0.907 0.154-0.1 0.292-0.23 0.437-0.325l282.143-188.096c4.455-2.969 9.589-4.465 14.719-4.465 5.124 0 10.254 1.496 14.713 4.465l282.143 188.096c0.148 0.096 0.284 0.226 0.439 0.325 0.413 0.29 0.805 0.597 1.202 0.907 0.511 0.405 1.014 0.827 1.502 1.268 0.365 0.323 0.707 0.683 1.054 1.038 0.463 0.455 0.903 0.945 1.326 1.43 0.308 0.373 0.615 0.747 0.907 1.152 0.399 0.521 0.765 1.056 1.122 1.609 0.252 0.407 0.509 0.811 0.753 1.218 0.333 0.585 0.623 1.168 0.903 1.767 0.202 0.423 0.411 0.845 0.593 1.288 0.26 0.647 0.469 1.298 0.683 1.947 0.136 0.421 0.298 0.845 0.411 1.284 0.196 0.731 0.333 1.478 0.463 2.224 0.066 0.373 0.162 0.761 0.218 1.134 0.146 1.154 0.238 2.306 0.238 3.474v188.096c0 1.168-0.092 2.32-0.238 3.457v0zM525.739 693.356l207.847-138.554-92.839-62.108-115.008 76.932v123.73zM472.681 693.356v-123.73l-115.002-76.932-92.847 62.108 207.849 138.554zM243.594 505.179l66.371-44.392-66.371-44.396v88.787zM472.681 228.217l-207.847 138.556 92.847 62.090 115.002-76.918v-123.728h-0.002zM499.211 398.028l-93.827 62.759 93.827 62.757 93.821-62.757-93.821-62.759zM525.739 228.217v123.728l115.008 76.918 92.839-62.090-207.847-138.556zM754.824 416.393l-66.361 44.396 66.361 44.392v-88.787z" />
<glyph unicode="&#xe902;" glyph-name="github-logo" horiz-adv-x="1120" d="M732.993 361.157c-42.462 0-76.881-51.914-76.881-115.729 0-63.943 34.419-115.857 76.881-115.857s76.881 51.914 76.881 115.857c-0.059 63.815-34.419 115.729-76.881 115.729v0zM1000.659 662.412c8.812 23.48 9.167 156.899-37.554 284.722 0 0-107.102-12.802-269.144-133.805-34.005 10.293-91.548 15.31-148.973 15.31-57.543 0-115.026-5.018-149.032-15.31-162.102 121.004-269.203 133.805-269.203 133.805-46.661-127.823-46.188-261.242-37.494-284.722-54.882-64.844-88.414-142.747-88.414-249.019 0-462.271 352.649-469.669 441.595-469.669 20.226 0 60.204-0.129 102.548-0.129 42.285 0 82.322 0.129 102.43 0.129 89.064 0 441.595 7.398 441.595 469.669 0 106.272-33.473 184.175-88.355 249.019v0zM546.585 0.527h-3.312c-223.015 0-396.767 28.884-396.767 264.716 0 56.546 18.333 108.91 61.919 152.396 72.564 72.499 195.456 34.159 334.848 34.159h3.312c139.392 0 262.343 38.34 334.967-34.159 43.468-43.487 61.801-95.851 61.801-152.396 0-235.832-173.693-264.716-396.767-264.716v0zM356.924 361.157c-42.462 0-76.881-51.914-76.881-115.729 0-63.943 34.419-115.857 76.881-115.857 42.521 0 76.941 51.914 76.941 115.857 0 63.815-34.419 115.729-76.941 115.729v0z" />
<glyph unicode="&#xe903;" glyph-name="linkedin-logo" horiz-adv-x="1120" d="M257.611 836.843c0-59.175-47.625-107.055-126.019-107.055-73.736 0-121.299 47.936-121.299 107.055 0 60.524 49.157 106.999 124.425 106.999s121.361-46.419 122.893-106.999v0zM16.361-43.595v688.863h233.589v-688.863h-233.589zM389.698 425.481c0 85.925-3.065 157.801-6.129 219.787h202.758l10.788-95.816h4.597c30.708 45.126 106.037 111.27 231.995 111.27 153.662 0 268.894-94.411 268.894-297.226v-407.091h-233.527v381.746c0 88.735-33.834 149.315-118.296 149.315-64.542 0-102.911-40.855-119.828-80.362-6.191-14.049-7.662-33.831-7.662-53.5v-397.201h-233.527v469.077h-0.061z" />
<glyph unicode="&#xe904;" glyph-name="toolbox" horiz-adv-x="1322" d="M1268.415 718.93h-328.848v96.428c0 79.757-63.222 144.642-140.935 144.642h-281.87c-77.71 0-140.935-64.885-140.935-144.642v-96.428h-328.848c-25.944 0-46.978-21.585-46.978-48.214v-192.856c0-26.626 21.035-48.214 46.978-48.214v-433.926c0-26.626 21.035-48.214 46.978-48.214h1127.48c25.946 0 46.978 21.588 46.978 48.214v433.926c25.946 0 46.978 21.588 46.978 48.214v192.856c0 26.629-21.032 48.214-46.978 48.214v0zM422.805 815.358c0 53.255 42.067 96.428 93.957 96.428h281.87c51.89 0 93.957-43.173 93.957-96.428v-96.428h-46.978v96.428c0 26.629-21.032 48.214-46.978 48.214h-281.87c-25.946 0-46.978-21.585-46.978-48.214v-96.428h-46.978v96.428zM798.632 815.358v-96.428h-281.87v96.428h281.87zM1221.437-4.279h-1127.48v433.926h469.783v-72.321c0-53.17 42.15-96.428 93.957-96.428s93.957 43.258 93.957 96.428v72.321h469.783v-433.926zM704.675 381.432v-24.107c0-26.629-21.032-48.214-46.978-48.214-25.944 0-46.978 21.585-46.978 48.214v24.107h93.957zM610.719 429.646v96.428h93.957v-96.428h-93.957zM1268.415 477.86h-516.762v48.214c0 26.629-21.032 48.214-46.978 48.214h-93.957c-25.944 0-46.978-21.585-46.978-48.214v-48.214h-516.762v192.856h1221.437v-192.856z" />
<glyph unicode="&#xe905;" glyph-name="web-resp" horiz-adv-x="1830" d="M1364.742 0.228v0c0-16.655 12.024-29.147 28.056-29.147s28.056 12.492 28.056 29.147c0 16.655-12.024 29.147-28.056 29.147s-28.056-12.492-28.056-29.147zM1691.398 755.97v-183.21h-42.085v162.391h-535.075v-687.039h382.769v-68.704c0-12.492 4.008-20.819 12.024-29.147h-412.829c-14.028 0-26.052 12.492-26.052 29.147v776.562c0 16.655 12.024 29.147 26.052 29.147h569.144c16.032 0 26.052-12.492 26.052-29.147v0zM1360.734 0.228c0-18.737 14.028-33.311 32.064-33.311s32.064 14.574 32.064 33.311c0 18.737-14.028 33.311-32.064 33.311s-32.064-14.574-32.064-33.311v0zM1386.786 755.97c0 4.164-2.004 6.246-6.012 6.246s-6.012-2.082-6.012-6.246c0-4.164 2.004-6.246 6.012-6.246s6.012 4.164 6.012 6.246v0zM905.82 603.989l120.242-212.357h-322.648l90.181 160.309 42.085-74.95 70.141 126.998zM1406.827 454.090l70.141-131.162h-194.391l54.109 99.933 26.052-45.803 44.089 77.032zM1687.39 327.092l50.101-91.605h-136.274l38.076 68.704 18.036-31.229 30.060 54.13zM1663.342 31.457v0c14.028 0 28.056-12.492 28.056-29.147s-12.024-29.147-28.056-29.147c-16.032 0-28.056 12.492-28.056 29.147s12.024 29.147 28.056 29.147zM1823.664 539.449v-564.204c0-14.574-14.028-27.065-30.060-27.065h-262.527c-16.032 0-30.060 12.492-30.060 27.065v564.204c0 14.574 14.028 27.065 30.060 27.065h262.527c16.032 0 30.060-12.492 30.060-27.065v0zM1647.31 526.958c0-2.082 2.004-4.164 4.008-4.164h38.076c2.004 0 4.008 2.082 4.008 4.164s-2.004 4.164-4.008 4.164h-38.076c-4.008 0-4.008-2.082-4.008-4.164v0zM1623.261 526.958c0-2.082 2.004-4.164 4.008-4.164s4.008 2.082 4.008 4.164c0 2.082-2.004 4.164-4.008 4.164s-4.008-2.082-4.008-4.164v0zM1695.406 2.31c0 18.737-14.028 33.311-32.064 33.311s-32.064-14.574-32.064-33.311c0-18.737 14.028-33.311 32.064-33.311s32.064 14.574 32.064 33.311v0zM1807.632 489.483h-288.58v-437.206h288.58v437.206zM1064.138-31.001v0c0-12.492 10.020-20.819 10.020-20.819h-1010.029c-30.060 0-56.113 20.819-56.113 45.803v35.393h727.462v-6.246c0-10.41 8.016-16.655 20.040-16.655h206.415c12.024 0 20.040 8.328 20.040 16.655v6.246h82.165v-60.376zM1573.161 899.624v0c0 29.147-24.048 54.13-56.113 54.13h-1318.649c-30.060 0-56.113-24.983-56.113-56.212v-857.757h921.852v58.294h-861.731v799.463h1310.633v-120.752h60.121v122.834zM863.735 926.689v0c0-4.164-2.004-6.246-6.012-6.246s-6.012 2.082-6.012 6.246c0 4.164 2.004 6.246 6.012 6.246s6.012-2.082 6.012-6.246z" />
<glyph unicode="&#xe906;" glyph-name="codepen-logo-inverted" d="M512.002 960c282.771 0 511.998-228.768 511.998-510.978 0-282.214-229.226-510.974-511.998-510.974-282.776 0-512.002 228.76-512.002 510.974 0 282.21 229.226 510.978 512.002 510.978zM828.338 548.823c-0.057 0.399-0.156 0.781-0.223 1.179-0.133 0.764-0.276 1.529-0.475 2.277-0.117 0.45-0.283 0.881-0.422 1.312-0.217 0.666-0.434 1.331-0.7 1.979-0.186 0.45-0.401 0.897-0.608 1.331-0.287 0.613-0.584 1.212-0.926 1.793-0.25 0.433-0.514 0.85-0.772 1.263-0.369 0.566-0.741 1.116-1.151 1.647-0.299 0.397-0.614 0.797-0.93 1.179-0.434 0.497-0.885 0.995-1.36 1.463-0.356 0.364-0.709 0.73-1.081 1.065-0.5 0.448-1.016 0.881-1.54 1.294-0.406 0.317-0.809 0.634-1.233 0.932-0.16 0.1-0.299 0.233-0.451 0.333l-289.374 192.53c-9.142 6.083-21.041 6.083-30.183 0l-289.372-192.528c-0.15-0.1-0.291-0.233-0.449-0.333-0.426-0.298-0.825-0.615-1.225-0.932-0.532-0.415-1.049-0.848-1.54-1.294-0.383-0.335-0.731-0.699-1.092-1.065-0.473-0.468-0.924-0.967-1.348-1.463-0.326-0.384-0.641-0.783-0.94-1.179-0.399-0.531-0.784-1.081-1.141-1.647-0.274-0.415-0.532-0.83-0.782-1.263-0.334-0.58-0.633-1.179-0.924-1.793-0.209-0.431-0.426-0.881-0.608-1.331-0.266-0.648-0.483-1.312-0.698-1.979-0.143-0.431-0.299-0.863-0.426-1.312-0.199-0.748-0.332-1.512-0.473-2.277-0.066-0.399-0.166-0.781-0.217-1.179-0.158-1.163-0.25-2.342-0.25-3.54v-192.53c0-1.196 0.090-2.375 0.25-3.556 0.051-0.384 0.152-0.781 0.217-1.161 0.141-0.764 0.274-1.529 0.473-2.277 0.127-0.45 0.283-0.883 0.426-1.314 0.215-0.662 0.432-1.329 0.698-1.993 0.182-0.454 0.399-0.885 0.608-1.318 0.293-0.613 0.592-1.21 0.924-1.809 0.25-0.417 0.508-0.83 0.782-1.247 0.356-0.564 0.741-1.114 1.141-1.647 0.299-0.415 0.616-0.799 0.94-1.179 0.426-0.497 0.874-0.997 1.348-1.463 0.358-0.364 0.709-0.73 1.092-1.063 0.492-0.452 1.008-0.883 1.54-1.298 0.399-0.317 0.801-0.634 1.225-0.928 0.158-0.102 0.299-0.235 0.449-0.333l289.372-192.53c4.569-3.039 9.834-4.57 15.096-4.57 5.255 0 10.516 1.531 15.090 4.57l289.372 192.53c0.152 0.098 0.291 0.231 0.451 0.333 0.424 0.296 0.825 0.611 1.233 0.928 0.524 0.415 1.040 0.846 1.54 1.298 0.375 0.331 0.725 0.699 1.081 1.063 0.475 0.466 0.926 0.967 1.36 1.463 0.315 0.382 0.631 0.764 0.93 1.179 0.41 0.533 0.784 1.081 1.151 1.647 0.258 0.417 0.522 0.83 0.772 1.247 0.342 0.599 0.639 1.196 0.926 1.809 0.207 0.433 0.422 0.865 0.608 1.318 0.266 0.662 0.481 1.329 0.7 1.993 0.139 0.431 0.305 0.865 0.422 1.314 0.201 0.748 0.342 1.512 0.475 2.277 0.068 0.382 0.166 0.779 0.223 1.161 0.15 1.181 0.244 2.361 0.244 3.556v192.53c0 1.196-0.094 2.375-0.244 3.538zM539.21 687.071l213.172-141.82-95.218-63.572-117.955 78.746v126.647zM484.792 687.071v-126.647l-117.948-78.746-95.226 63.572 213.174 141.82zM249.836 494.458l68.071-45.438-68.071-45.442v90.88zM484.792 210.968l-213.172 141.823 95.226 63.553 117.948-78.731v-126.644h-0.002zM512.002 384.782l-96.231 64.238 96.231 64.236 96.225-64.236-96.225-64.238zM539.21 210.968v126.644l117.955 78.731 95.218-63.553-213.172-141.823zM774.164 403.579l-68.061 45.442 68.061 45.438v-90.88z" />
<glyph unicode="&#xe907;" glyph-name="heroku-logo" horiz-adv-x="806" d="M710.172-61.594c52.592 0 95.244 43.615 95.244 97.424v826.742c0 53.809-42.652 97.428-95.244 97.428h-614.936c-52.6 0-95.236-43.619-95.236-97.428v-826.742c0-53.809 42.636-97.424 95.236-97.424h614.936zM504.742 78.971v405.707c0 0 25.792 97.086-317.726-39.717-0.628-1.735-0.628 375.158-0.628 375.158l112.24 0.705v-241.479c0 0 314.271 126.634 314.271-96.035v-404.339l-108.156 0.001zM568.7 674.676h-119.055c42.853 53.603 81.647 145.444 81.647 145.444h123.098c0-0.001-21.072-59.85-85.69-145.444zM188.426 79.676v231.037l112.925-115.529-112.925-115.508z" />
<glyph unicode="&#xe908;" glyph-name="behance-logo" horiz-adv-x="1493" d="M595.95 499.153c0 0 139.685 11.249 139.685 188.173 0 177.154-114.288 263.32-259.141 263.32h-476.494v-989.154h476.494c0 0 290.961-9.872 290.961 292.017-0.074 0.077 12.625 245.643-171.505 245.643v0zM209.971 774.947h266.524c0 0 64.822 0 64.822-102.849 0-103.002-38.096-117.924-81.36-117.924h-249.986v220.773zM462.984 137.346h-253.013v264.392h266.524c0 0 96.569 1.377 96.569-135.831 0-115.705-72.131-127.719-110.080-128.561v0zM1155.355 699.111c-352.24 0-351.944-380.097-351.944-380.097s-24.068-378.107 351.944-378.107c0 0 313.258-19.437 313.258 263.014h-161.096c0 0 5.316-106.445-146.773-106.445 0 0-161.243-11.632-161.243 172.18h474.206c0.074 0.077 52.345 429.455-318.352 429.455v0zM1298.658 401.738h-300.781c0 0 19.639 152.437 161.096 152.437s139.685-152.437 139.685-152.437v0zM1336.089 892.565h-377.785v-121.98h377.785v121.98z" />
<glyph unicode="&#xe909;" horiz-adv-x="1170" d="M713.589 960h271.164v-99.556h-271.164v99.556zM185.533 960h271.164v-99.556h-271.164v99.556zM0 775.111h85.631v-284.444h-85.631v284.444zM1084.655 775.111h85.631v-284.444h-85.631v284.444zM984.753 490.667h99.902v-85.333h-99.902v85.333zM984.753 860.444h99.902v-85.333h-99.902v85.333zM627.958 860.444h85.631v-85.333h-85.631v85.333zM456.697 860.444h85.631v-85.333h-85.631v85.333zM542.328 775.111h85.631v-99.556h-85.631v99.556zM71.359 860.444h114.174v-85.333h-114.174v85.333zM71.359 490.667h114.174v-85.333h-114.174v85.333zM185.533 405.333h85.631v-99.556h-85.631v99.556zM271.164 305.778h85.631v-85.333h-85.631v85.333zM813.491 305.778h85.631v-85.333h-85.631v85.333zM899.122 405.333h85.631v-99.556h-85.631v99.556zM713.589 220.444h99.902v-99.556h-99.902v99.556zM356.794 220.444h99.902v-99.556h-99.902v99.556zM456.697 120.889h85.631v-85.333h-85.631v85.333zM627.958 120.889h85.631v-85.333h-85.631v85.333zM542.328 35.556h85.631v-99.556h-85.631v99.556z" />
<glyph unicode="&#xe90a;" horiz-adv-x="1170" d="M999.024 775.111v-284.444h85.631v284.444h-85.631zM85.631 775.111h99.902v-284.444h-99.902v284.444zM456.697 220.444h256.892v-99.556h-256.892v99.556zM356.794 305.778h456.697v-85.333h-456.697v85.333zM271.164 405.333h627.958v-99.556h-627.958v99.556zM185.533 490.667h799.22v-85.333h-799.22v85.333zM185.533 590.222h813.491v-99.556h-813.491v99.556zM271.164 675.556h727.861v-85.333h-727.861v85.333zM627.958 775.111h371.066v-99.556h-371.066v99.556zM713.589 860.444h271.164v-85.333h-271.164v85.333zM356.794 775.111h185.533v-99.556h-185.533v99.556zM542.328 120.889h85.631v-85.333h-85.631v85.333zM185.533 860.444h271.164v-85.333h-271.164v85.333z" />
<glyph unicode="&#xe90b;" horiz-adv-x="1170" d="M185.533 775.111h171.261v-99.556h-171.261v99.556zM185.533 675.556h85.631v-85.333h-85.631v85.333z" />
<glyph unicode="&#xe90c;" glyph-name="angular-logo" d="M416.973 448h198.656l-105.6 210.302-93.056-210.302zM510.379 959.789l-505.66-169.48 79.898-630.955 426.3-223.143 428.493 226.158 79.872 630.938-508.902 166.481zM375.842 358.603l-61.995-147.716-115.891-0.455 312.388 658.928-0.597 1.243h-0.546l0.009 1.081 0.538-1.081h1.203l1.050 2.227v-2.227h-1.058l-0.589-1.243 325.879-661.675-111.565 2.332-68.625 150.999-146.543-0.666-133.658-1.747z" />
<glyph unicode="&#xe90d;" glyph-name="bootstrap-logo" d="M611.951 438.964c-19.12 6.291-46.645 4.94-82.575 4.94h-144.351v-188.416h154.37c24.117 0 41.058 2.58 50.815 4.383 17.195 3.080 31.572 9.044 43.123 16.237 11.543 7.176 21.037 18.063 28.492 31.793 7.438 13.73 11.166 29.794 11.166 47.759 0 21.037-5.39 37.192-16.179 52.724-10.781 15.532-25.731 24.289-44.859 30.581v0zM592.134 525.111c18.981 5.636 33.292 15.483 42.918 28.566 9.634 13.091 14.442 29.745 14.442 49.512 0 18.727-4.497 35.34-13.484 49.594s-21.807 19.767-38.494 25.035c-16.687 5.251-45.302 3.654-85.852 3.654h-126.64v-163.84h135.881c33.112 0 56.844 3.113 71.229 7.479v0zM1024 823.808c0 75.219-60.973 136.192-136.192 136.192h-751.616c-75.219 0-136.192-60.973-136.192-136.192v-751.616c0-75.219 60.973-136.192 136.192-136.192h751.616c75.219 0 136.192 60.973 136.192 136.192v751.616zM733.618 282.153c-11.158-22.716-24.961-40.231-41.386-52.552-16.433-12.321-37.036-22.774-61.8-29.065-24.756-6.3-55.116-10.584-91.038-10.584h-228.098v565.248h224.625c43.123 0 77.701-4.989 103.752-16.4 26.059-11.428 46.457-28.647 61.227-52.388 14.754-23.74 22.135-48.39 22.135-74.31 0-24.125-6.554-46.76-19.636-68.059-13.091-21.316-32.858-38.453-59.286-51.544 34.128-10.011 60.375-27.066 78.725-51.184 18.35-24.125 27.525-52.609 27.525-85.459 0-26.436-5.579-50.995-16.744-73.703v0z" />
<glyph unicode="&#xe90e;" glyph-name="css3-logo" horiz-adv-x="829" d="M5.625 960l74.421-917.398 333.935-102.237 334.867 102.611 74.48 917.025h-817.702zM668.72 749.82l-24.772-305.615 0.074-1.65-0.104-3.795v0.033l-17.6-213.691-1.939-18.985-210.065-63.911-209.54 64.106-14.188 176.673h102.753l7.29-89.836 113.848-33.938 114.299 34.369 12.079 146.294h-238.938l-2.050 24.73-4.67 57.937-2.45 31.11h257.19l9.355 113.778h-391.724l-2.050 24.714-4.663 57.954-2.457 31.11h512.774l-2.45-31.386z" />
<glyph unicode="&#xe90f;" glyph-name="gulp-logo" horiz-adv-x="1621" d="M446.040 431.452c-1.088-1.643-3.055-6.82-5.905-15.524-2.851-8.717-6.313-19.639-10.388-32.793-4.069-13.141-8.49-27.844-13.233-44.114-4.755-16.264-9.64-32.863-14.661-49.79-5.021-16.94-9.838-33.527-14.451-49.797-4.625-16.264-8.756-30.967-12.417-44.12-3.667-13.135-6.715-24.152-9.164-33.033-2.443-8.868-3.939-14.121-4.477-15.777-1.36-5.253-3.531-11.087-6.511-17.503-2.993-6.403-6.517-12.49-10.586-18.242-4.075-5.746-8.546-10.512-13.437-14.298-4.891-3.774-9.912-5.664-15.063-5.664-8.694 0-15.001 2.958-18.934 8.868-3.945 5.923-5.905 16.757-5.905 32.534v6.909c0 2.301 0.13 4.766 0.408 7.389 0.266 5.259 2.306 15.132 6.109 29.589 3.797 14.462 8.348 30.808 13.641 49.051s10.994 37.136 17.104 56.693c6.109 19.557 11.6 37.054 16.492 52.515-14.395-16.447-29.997-32.793-46.822-49.057-16.838-16.27-34.071-30.897-51.713-43.874-17.648-12.996-35.426-23.59-53.34-31.801-17.914-8.205-35.16-12.326-51.713-12.326-19.002 0-35.358 4.279-49.067 12.819-13.709 8.552-25.037 19.721-33.997 33.527s-15.614 29.412-19.954 46.832c-4.347 17.421-6.517 34.835-6.517 52.256v6.416c0 1.966 0.13 3.938 0.408 5.91 1.626 31.554 6.035 63.924 13.233 97.122 7.191 33.198 16.621 66.231 28.302 99.094 11.668 32.856 25.173 64.992 40.515 96.382 15.329 31.384 32.025 61.048 50.081 88.987 18.050 27.926 37.256 53.646 57.612 77.154 20.356 23.495 41.257 43.71 62.708 60.637 21.438 16.921 43.087 30.151 64.94 39.683 21.847 9.526 43.501 14.292 64.94 14.292 24.697 0 48.591-6.903 71.661-20.701 23.065-13.805 44.645-36.162 64.742-67.047 4.607-6.903 7.532-13.887 8.75-20.948 1.218-7.073 1.83-13.723 1.83-19.968 0-14.785-3.463-26.466-10.382-35.006-6.919-8.552-15.131-12.819-24.635-12.819-8.688 0-16.757 4.684-24.227 14.052s-15.818 22.756-25.043 40.176c-8.688 15.777-18.26 27.193-28.704 34.26-10.45 7.067-21.785 10.6-34.003 10.6-19.002 0-39.29-8.059-60.871-24.159-21.581-16.106-42.957-37.395-64.13-63.848-21.179-26.46-41.467-56.687-60.877-90.706-19.404-34.020-36.582-68.855-51.509-104.518-14.933-35.663-26.806-70.833-35.624-105.491-8.824-34.677-13.233-65.814-13.233-93.431 0-9.197 0.612-18.653 1.83-28.337 1.224-9.696 3.525-18.495 6.926-26.377 3.389-7.889 8.002-14.38 13.845-19.469 5.837-5.114 13.233-7.642 22.193-7.642 10.042 0 21.445 3.445 34.201 10.354 12.751 6.896 25.99 15.935 39.699 27.111 13.703 11.176 27.48 23.824 41.331 37.964 13.845 14.121 26.732 28.419 38.678 42.888 11.94 14.456 22.533 28.35 31.759 41.662 9.226 13.306 16.145 24.892 20.764 34.753l37.868 115.857c4.613 12.484 10.648 21.352 18.118 26.618 7.464 5.253 15.131 7.889 23.009 7.889 3.797 0 7.593-0.664 11.396-1.972 3.797-1.315 7.191-3.369 10.178-6.163s5.355-6.409 7.123-10.847c1.762-4.437 2.647-9.614 2.647-15.524 0-15.777-1.36-30.568-4.069-44.373-2.715-13.818-6.177-27.281-10.382-40.429-4.211-13.141-8.892-26.377-14.043-39.683-5.151-13.312-10.172-27.206-15.051-41.668v0zM959.474 334.823c-11.953-16.435-25.86-32.452-41.733-48.065-15.879-15.613-32.241-29.5-49.067-41.662-16.838-12.155-33.391-21.934-49.673-29.329-16.288-7.396-30.943-11.093-43.971-11.093s-23.615 4.437-31.765 13.306c-8.138 8.868-12.213 23.988-12.213 45.359 0 15.12 2.17 32.705 6.511 52.755-7.062-12.825-15.873-25.809-26.46-38.95-10.592-13.148-22.669-25.145-36.242-35.992s-28.772-19.633-45.604-26.365c-16.832-6.732-35.16-10.114-54.966-10.114-8.954 0-17.58 1.157-25.86 3.458-8.286 2.295-15.539 6.232-21.779 11.827-6.252 5.581-11.266 13.053-15.069 22.433-3.803 9.355-5.701 21.112-5.701 35.246 0 0.329 0.544 5.341 1.632 15.038 1.076 9.69 4.539 24.974 10.382 45.852 5.831 20.859 14.865 47.894 27.078 81.092 12.219 33.198 29.452 73.45 51.707 120.775 5.701 12.49 12.281 21.447 19.744 26.871 7.47 5.423 15.539 8.135 24.227 8.135 3.803 0 7.736-0.582 11.811-1.719 4.075-1.163 7.866-2.958 11.403-5.423 3.525-2.465 6.375-5.594 8.552-9.361 2.177-3.78 3.259-8.129 3.259-13.065 0-3.287-0.408-6.416-1.224-9.355-1.36-5.607-4.273-12.907-8.756-21.94-4.483-9.045-9.702-19.405-15.669-31.068-5.98-11.669-12.287-24.241-18.934-37.717-6.654-13.476-12.825-27.439-18.526-41.902-5.701-14.469-10.586-29.171-14.655-44.12-4.075-14.955-6.381-29.5-6.919-43.621 0-5.923 1.354-11.346 4.069-16.27 2.708-4.93 7.185-7.402 13.437-7.402 17.642 0 34.467 5.923 50.489 17.756 16.015 11.827 30.8 26.536 44.386 44.12 13.567 17.572 25.854 36.478 36.842 56.693 10.994 20.215 20.165 38.697 27.486 55.46 5.157 11.176 9.696 23.173 13.641 35.992 3.933 12.813 8.206 24.639 12.825 35.492 4.613 10.847 9.906 19.88 15.873 27.111s13.437 10.847 22.397 10.847c9.77 0 17.5-3.786 23.207-11.334 5.701-7.566 8.546-16.599 8.546-27.117 0-5.923-1.824-14.052-5.491-24.399-3.673-10.36-8.286-22.193-13.851-35.499-5.559-13.306-11.6-27.522-18.112-42.641-6.517-15.126-12.565-30.486-18.118-46.093-5.571-15.619-10.178-30.903-13.845-45.859-3.667-14.949-5.497-28.836-5.497-41.649 0-11.839 5.967-17.749 17.908-17.749 8.41 0 18.866 2.958 31.345 8.862 12.497 5.923 25.588 14.222 39.297 24.898 13.703 10.676 27.412 23.255 41.121 37.711 13.703 14.462 25.86 30.075 36.44 46.839l4.087-67.053zM972.101 359.487c-2.987-7.566-5.905-16.359-8.756-26.384-2.857-10.025-4.273-18.976-4.273-26.864 0-4.924 0.816-8.868 2.443-11.833 1.632-2.958 4.755-4.437 9.374-4.437 5.695 0 12.819 2.048 21.37 6.163 8.546 4.109 17.772 9.538 27.69 16.27 9.912 6.726 20.226 14.456 30.943 23.173 10.716 8.704 21.377 17.749 31.963 27.111 10.592 9.374 20.696 18.735 30.337 28.097 9.634 9.374 18.254 18.002 25.86 25.884 2.17 2.301 4.743 3.951 7.736 4.93 2.974 0.986 5.559 1.479 7.736 1.479 5.423 0 9.912-2.301 13.437-6.909 3.518-4.602 5.287-10.67 5.287-18.242 0-6.896-1.905-14.62-5.695-23.166-3.803-8.552-10.45-16.934-19.961-25.139-17.376-19.399-34.875-37.8-52.523-55.22s-35.215-32.781-52.721-46.086c-17.512-13.318-34.888-23.912-52.121-31.807-17.24-7.882-33.997-11.827-50.291-11.827-11.13 0-20.431 1.808-27.888 5.417-7.476 3.622-13.437 8.552-17.914 14.785-4.483 6.251-7.674 13.641-9.572 22.193-1.905 8.546-2.844 17.572-2.844 27.111 0 16.106 1.966 32.616 5.899 49.557 3.933 16.915 8.614 32.452 14.043 46.579 9.498 25.644 19.144 51.099 28.914 76.414 9.764 25.303 18.724 48.476 26.88 69.518l123.362 317.977c4.885 12.819 11.464 21.858 19.75 27.117 8.28 5.253 16.621 7.889 25.043 7.889 8.403 0 16.083-2.794 23.009-8.382 6.913-5.594 10.382-14.627 10.382-27.117 0-5.916-1.163-12.162-3.469-18.729-2.306-6.586-5.225-13.641-8.75-21.201-6.79-15.448-14.859-34.348-24.227-56.687-9.368-22.357-19.416-46.674-30.139-72.963-10.716-26.302-21.717-53.659-32.971-82.084-11.273-28.425-22.267-56.118-32.989-83.070-10.716-26.959-20.758-52.502-30.126-76.661s-17.444-45.113-24.227-62.856v0zM1549.060 448.714c3.803 2.63 7.34 4.76 10.592 6.416 3.253 1.631 6.375 2.465 9.368 2.465 5.961 0 10.444-2.718 13.437-8.135 2.98-5.423 4.477-12.079 4.477-19.968 0-8.559-1.824-17.25-5.497-26.131-3.661-8.868-9.158-16.264-16.492-22.18-29.050-26.295-54.972-50.283-77.758-71.983-22.805-21.687-44.324-40.347-64.544-55.96s-39.964-27.692-59.239-36.232c-19.274-8.54-39.903-12.813-61.898-12.813-20.628 0-36.576 4.608-47.836 13.805-11.266 9.197-16.9 21.852-16.9 37.964v3.698c0 1.144 0.13 2.541 0.408 4.191 1.076 9.854 5.293 21.201 12.621 34.013 7.334 12.819 16.151 26.131 26.466 39.93s21.302 27.774 32.983 41.908c11.668 14.121 22.453 27.522 32.371 40.183 9.906 12.642 18.118 24.228 24.623 34.753 6.524 10.512 9.776 19.051 9.776 25.632 0 3.944-1.367 7.061-4.069 9.368-2.708 2.295-7.198 3.445-13.437 3.445-10.865 0-22.051-2.87-33.589-8.628-11.545-5.739-22.947-13.47-34.208-23.16-11.266-9.703-22.267-20.796-32.983-33.28-10.722-12.497-20.758-25.474-30.133-38.95-9.368-13.483-17.908-27.029-25.649-40.676-7.736-13.634-14.321-26.207-19.744-37.711-1.626-3.616-3.939-8.717-6.926-15.284-2.987-6.58-6.245-13.976-9.764-22.193-3.537-8.211-7.266-16.687-11.205-25.379-3.939-8.717-7.532-16.94-10.784-24.652-3.259-7.724-6.184-14.614-8.756-20.708-2.585-6.074-4.421-10.265-5.497-12.566-1.367-2.958-3.605-8.54-6.722-16.757-3.123-8.217-6.715-17.825-10.797-28.843-4.063-11.005-8.348-22.591-12.819-34.753s-8.682-23.666-12.621-34.513c-3.939-10.84-7.402-20.373-10.382-28.59-2.987-8.211-4.891-13.805-5.707-16.757-2.708-8.546-5.905-16.593-9.566-24.159-3.667-7.554-7.872-14.21-12.621-19.968-4.749-5.739-10.184-10.347-16.288-13.805-6.116-3.451-12.967-5.171-20.56-5.171-9.776 0-17.846 2.389-24.233 7.149-6.369 4.766-9.566 13.887-9.566 27.364 0 6.574 0.81 13.306 2.443 20.202 1.639 6.909 3.673 13.736 6.109 20.467 2.443 6.738 4.959 13.306 7.532 19.709 2.585 6.416 4.965 12.572 7.123 18.495 14.661 32.869 29.588 65.814 44.788 98.848 15.205 33.033 29.792 65.719 43.767 98.108 13.981 32.37 26.942 64.171 38.895 95.396 11.94 31.219 21.847 61.13 29.718 89.72 2.17 5.923 5.157 14.298 8.96 25.151 3.797 10.84 8.138 21.517 13.029 32.041 4.885 10.512 10.382 19.633 16.485 27.351 6.109 7.724 12.689 11.593 19.744 11.593 10.865 0 18.73-2.541 23.615-7.642 4.891-5.101 7.334-12.566 7.334-22.433 0-1.972-0.272-5.101-0.81-9.361-0.55-4.273-1.224-8.805-2.034-13.565-0.816-4.766-1.7-9.286-2.653-13.565-0.952-4.273-1.837-7.389-2.653-9.355 10.042 11.176 20.9 22.263 32.581 33.274 11.668 11.005 23.751 20.96 36.242 29.829 12.478 8.868 25.241 16.1 38.27 21.7 13.029 5.581 26.058 8.375 39.086 8.375 8.948 0 17.846-1.315 26.664-3.944s16.696-6.492 23.615-11.58c6.926-5.107 12.553-11.511 16.894-19.228 4.335-7.731 6.511-16.687 6.511-26.871 0-13.483-3.321-27.857-9.968-43.141-6.654-15.278-15.001-30.644-25.037-46.086-10.054-15.455-20.913-30.486-32.581-45.113-11.681-14.627-22.595-27.939-32.779-39.93-10.178-11.997-18.724-22.187-25.649-30.562-6.919-8.388-10.524-14.058-10.79-17.010 0-3.951 1.224-7.149 3.667-9.614s6.517-3.698 12.219-3.698c4.613 0 11.403 2.636 20.363 7.895 8.948 5.253 21.506 14.374 37.658 27.351 16.139 12.983 36.65 30.404 61.483 52.268 24.852 21.814 55.454 49.348 91.826 82.546v0z" />
<glyph unicode="&#xe910;" glyph-name="html5-logo" horiz-adv-x="829" d="M0.241 960l75.4-918.266 338.345-101.589 339.28 101.474 75.475 918.381h-828.5zM667.188 683.839l-2.080-26.943h-396.894l9.473-114.688h377.986l-2.532-28.434-24.365-295.887-1.794-18.596-212.491-63.48-212.604 60.645-14.417 173.72h104.113l7.378-89.448 115.206-33.432 0.324 4.473 115.718 31.744 12.088 144.007h-359.462l-25.495 312.254-2.479 31.81h519.538l-2.487-28.991-4.725-58.753z" />
<glyph unicode="&#xe911;" glyph-name="javascript-logo" d="M0 960v-1024h1024v1024h-1024zM687.868 159.996c20.626-33.678 47.462-58.433 94.923-58.433 39.871 0 65.341 19.927 65.341 47.462 0 32.996-26.169 44.682-70.055 63.878l-24.056 10.321c-69.437 29.582-115.566 66.641-115.566 144.985 0 72.168 54.987 127.106 140.922 127.106 61.18 0 105.163-21.293 136.858-77.044l-74.931-48.112c-16.498 29.582-34.296 41.236-61.928 41.236-28.184 0-46.047-17.879-46.047-41.236 0-28.867 17.879-40.554 59.164-58.433l24.056-10.305c81.757-35.060 127.919-70.802 127.919-151.162 0-86.634-68.055-134.095-159.451-134.095-89.364 0-147.098 42.585-175.348 98.402l78.198 45.43zM347.949 151.658c15.116-26.819 28.867-49.493 61.928-49.493 31.614 0 51.558 12.369 51.558 60.465v327.192h96.223v-328.493c0-99.637-58.417-144.985-143.685-144.985-77.044 0-121.661 39.871-144.351 87.893l78.328 47.421z" />
<glyph unicode="&#xe912;" glyph-name="jquery-logo" horiz-adv-x="1054" d="M66.712 720.861c-93.007-134.808-81.429-310.193-10.38-453.429 1.689-3.434 3.46-6.813 5.203-10.192 1.117-2.143 2.166-4.341 3.324-6.456 0.654-1.263 1.389-2.5 2.070-3.709 1.212-2.28 2.452-4.451 3.705-6.676 2.207-3.929 4.468-7.83 6.783-11.731 1.28-2.143 2.547-4.286 3.869-6.428 2.561-4.176 5.19-8.297 7.873-12.417 1.117-1.758 2.207-3.516 3.351-5.22 3.705-5.577 7.492-11.126 11.401-16.593 0.097-0.141 0.204-0.303 0.326-0.439 0.614-0.879 1.294-1.731 1.921-2.61 3.378-4.698 6.865-9.341 10.393-13.929 1.294-1.676 2.602-3.352 3.909-5.027 3.147-3.984 6.348-7.94 9.603-11.895 1.212-1.484 2.438-2.967 3.664-4.423 4.373-5.192 8.827-10.357 13.376-15.412 0.084-0.079 0.191-0.192 0.272-0.275 0.191-0.219 0.354-0.357 0.517-0.576 4.441-4.89 8.99-9.67 13.595-14.451 1.43-1.484 2.888-2.967 4.359-4.423 3.569-3.626 7.192-7.198 10.856-10.742 1.485-1.429 2.956-2.885 4.441-4.258 4.89-4.643 9.835-9.203 14.874-13.654 0.084-0.079 0.149-0.141 0.232-0.192 0.858-0.77 1.744-1.484 2.588-2.225 4.441-3.874 8.963-7.72 13.512-11.512 1.852-1.511 3.732-2.995 5.598-4.505 3.719-2.994 7.478-5.962 11.265-8.874 2.002-1.538 4.005-3.077 6.021-4.615 4.182-3.104 8.391-6.154 12.64-9.148 1.553-1.127 3.051-2.225 4.604-3.297 0.435-0.303 0.831-0.604 1.267-0.907 4.032-2.802 8.159-5.494 12.273-8.187 1.771-1.182 3.528-2.417 5.312-3.571 6.32-4.038 12.736-8.022 19.22-11.868 1.757-1.017 3.542-2.005 5.312-3.022 4.768-2.775 9.562-5.494 14.425-8.159 2.629-1.429 5.326-2.775 7.982-4.148 3.433-1.813 6.838-3.654 10.325-5.412 0.789-0.386 1.607-0.77 2.384-1.153 1.403-0.686 2.82-1.346 4.223-2.060 5.408-2.61 10.856-5.165 16.36-7.637 1.172-0.522 2.302-1.044 3.46-1.566 6.307-2.775 12.667-5.439 19.083-7.995 1.539-0.631 3.092-1.236 4.645-1.84 5.939-2.308 11.96-4.588 18.008-6.731 0.763-0.275 1.498-0.522 2.261-0.796 6.634-2.335 13.336-4.505 20.078-6.621 1.607-0.467 3.228-0.989 4.849-1.456 6.865-2.088 13.649-4.588 20.732-5.907 449.804-82.72 580.46 272.587 580.46 272.587-109.734-144.17-304.519-182.193-489.071-139.86-6.988 1.593-13.771 3.791-20.595 5.824-1.73 0.522-3.433 1.043-5.135 1.566-6.661 2.060-13.268 4.231-19.832 6.511-0.9 0.329-1.812 0.659-2.724 0.989-5.884 2.088-11.701 4.286-17.49 6.538-1.635 0.659-3.269 1.291-4.904 1.951-6.348 2.527-12.654 5.165-18.879 7.912-1.28 0.55-2.506 1.127-3.773 1.676-5.353 2.445-10.652 4.917-15.923 7.473-1.525 0.742-3.051 1.456-4.604 2.225-4.14 2.037-8.235 4.209-12.319 6.324-2.734 1.452-5.512 2.824-8.224 4.344-4.988 2.689-9.887 5.491-14.763 8.35-1.651 0.934-3.325 1.834-4.988 2.802-6.483 3.848-12.888 7.832-19.226 11.872-1.752 1.125-3.459 2.329-5.189 3.488-4.597 2.993-9.172 6.043-13.68 9.171-1.495 1.024-2.935 2.116-4.408 3.128-4.352 3.106-8.659 6.245-12.933 9.43-1.942 1.452-3.85 2.914-5.736 4.366-3.917 3.027-7.811 6.076-11.672 9.205-1.744 1.401-3.487 2.802-5.203 4.203-4.904 4.066-9.753 8.159-14.534 12.362-0.503 0.439-1.049 0.879-1.594 1.346-5.176 4.588-10.257 9.286-15.283 14.011-1.458 1.401-2.874 2.775-4.304 4.176-3.719 3.571-7.383 7.17-10.979 10.852-1.444 1.456-2.888 2.885-4.304 4.341-4.577 4.725-9.072 9.506-13.472 14.368-0.218 0.248-0.449 0.467-0.667 0.715-4.659 5.137-9.208 10.385-13.663 15.686-1.212 1.456-2.384 2.857-3.582 4.286-3.324 4.038-6.62 8.132-9.835 12.253-1.205 1.485-2.41 3.004-3.604 4.535-3.872 5.064-7.655 10.116-11.359 15.247-102.462 140.941-139.271 335.332-57.378 494.975zM351.797 825.498c-67.262-97.61-63.612-228.273-11.142-331.506 8.799-17.308 18.688-34.094 29.749-50.083 10.080-14.56 21.249-31.896 34.625-43.599 4.849-5.385 9.916-10.632 15.092-15.797 1.307-1.346 2.642-2.637 3.977-3.956 5.026-4.918 10.134-9.753 15.419-14.451 0.218-0.164 0.409-0.384 0.626-0.55 0.056-0.056 0.112-0.079 0.149-0.141 5.844-5.165 11.877-10.137 18.008-15.027 1.363-1.043 2.711-2.143 4.086-3.214 6.143-4.753 12.41-9.423 18.838-13.874 0.191-0.141 0.354-0.275 0.545-0.412 2.833-1.978 5.721-3.819 8.595-5.714 1.375-0.907 2.684-1.868 4.073-2.72 4.59-2.967 9.235-5.852 13.962-8.626 0.668-0.412 1.321-0.77 1.975-1.153 4.073-2.363 8.2-4.698 12.341-6.95 1.444-0.824 2.915-1.538 4.386-2.308 2.861-1.511 5.721-3.049 8.636-4.505 0.435-0.219 0.886-0.412 1.307-0.605 5.925-2.939 11.905-5.769 18.008-8.462 1.307-0.577 2.656-1.098 3.977-1.648 4.876-2.088 9.807-4.121 14.765-6.044 2.098-0.797 4.223-1.566 6.32-2.335 4.495-1.676 9.004-3.214 13.553-4.753 2.057-0.659 4.073-1.346 6.13-1.978 6.47-2.033 12.858-4.588 19.601-5.714 347.29-58.021 427.464 211.619 427.464 211.619-72.274-104.972-212.237-155.052-361.595-115.96-6.634 1.758-13.172 3.681-19.669 5.742-1.989 0.604-3.937 1.263-5.912 1.923-4.618 1.511-9.208 3.105-13.757 4.78-2.084 0.77-4.168 1.538-6.211 2.335-4.985 1.923-9.916 3.929-14.806 6.017-1.335 0.577-2.684 1.098-3.991 1.703-6.13 2.692-12.164 5.522-18.116 8.489-3.065 1.511-6.075 3.104-9.085 4.67-1.744 0.906-3.501 1.813-5.244 2.72-3.868 2.115-7.71 4.313-11.497 6.538-0.898 0.522-1.839 1.017-2.751 1.566-4.699 2.775-9.331 5.632-13.921 8.571-1.417 0.907-2.779 1.896-4.195 2.83-3.024 1.978-6.048 3.983-9.017 6.017-6.402 4.451-12.627 9.121-18.77 13.847-1.417 1.127-2.833 2.225-4.223 3.352-65.378 52.055-117.199 123.184-141.837 203.844-25.821 83.653-20.253 177.557 24.482 253.761zM602.85 918.74c-39.652-58.846-43.548-131.927-16.033-196.923 29.014-68.984 88.471-123.105 157.861-148.761 2.861-1.072 5.721-2.033 8.622-3.022 1.267-0.385 2.52-0.825 3.8-1.208 4.086-1.291 8.146-2.802 12.368-3.599 191.761-37.362 243.771 99.231 257.619 119.335-45.563-66.154-122.131-82.033-216.076-59.039-7.42 1.823-15.577 4.524-22.73 7.078-9.172 3.297-18.211 7.055-26.993 11.309-16.682 8.079-32.583 17.892-47.324 29.122-84.069 64.321-136.291 187.032-81.436 286.968z" />
<glyph unicode="&#xe913;" glyph-name="node-logo" horiz-adv-x="926" d="M889.859 730.574l-381.821 214.914c-24.080 13.295-55.433 13.295-79.703 0l-385.899-214.914c-24.85-13.858-42.436-39.902-42.436-67.76v-429.257c0-27.858 18.045-53.911 42.895-67.844l101.956-56.135c48.731-23.267 65.953-23.267 88.128-23.267 72.153 0 113.368 42.295 113.368 116.065v423.785c0 5.985-3.212 14.89-9.273 14.89h-48.688c-6.165 0-19.967-8.905-19.967-14.882v-423.785c0-32.701-30.513-65.242-87.539-37.603l-105.35 58.863c-3.671 1.93-6.26 5.817-6.26 9.913v429.257c0 4.046 4.806 8.108 8.503 10.181l384.652 214.545c3.593 1.972 8.875 1.972 12.46 0l379.959-214.494c3.637-2.124 2.355-6.060 2.355-10.232v-429.257c0-4.096 1.585-8.083-2.009-10.055l-381.726-214.671c-3.273-1.905-7.334-1.905-10.919 0l-97.903 56.647c-2.953 1.662-6.459 2.258-9.291 0.722-27.24-14.966-32.262-16.955-57.814-25.541-6.286-2.124-15.56-5.808 3.55-16.191l128.131-73.476c12.269-6.883 26.21-10.458 40.237-10.458 14.218 0 28.141 3.576 40.41 10.458l379.985 214.721c24.85 14.034 36.626 39.986 36.626 67.844v429.257c0 27.858-11.776 53.836-36.617 67.76v0zM588.009 301.576c-101.531 0-123.897 27.153-131.352 76.095-0.866 5.271-5.481 11.575-11.014 11.575h-49.623c-6.139 0-11.074-7.218-11.074-13.144 0-62.665 35.145-138.593 203.071-138.593 121.559 0 191.252 45.786 191.252 126.817 0 80.342-55.996 101.426-173.883 116.551-119.16 15.268-131.265 22.981-131.265 50.042 0 22.31 10.252 52.065 98.484 52.065 78.837 0 107.896-16.401 119.853-67.911 1.022-4.843 5.585-8.318 10.737-8.318h49.822c3.065 0 5.992 1.2 8.139 3.324 2.078 2.283 3.178 5.145 2.901 8.217-7.715 88.702-68.507 130.040-191.46 130.040-109.367 0-174.61-44.771-174.61-119.816 0-81.4 64.914-103.894 169.9-113.958 125.594-11.935 135.361-29.73 135.361-53.676 0-41.59-34.444-59.308-115.238-59.308v0z" />
<glyph unicode="&#xe914;" glyph-name="rails-logo" d="M116.431-61.505h494.415c0 0-109.664 256.183-81.783 491.335s208.175 342.214 310.404 353.685c102.229 11.471 157.99-53.531 157.99-53.531l22.304 34.413c0 0-146.838 152.945-332.708 135.739s-314.121-143.386-394.045-296.331c-79.924-152.945-126.392-260.006-157.99-420.598s-18.587-244.712-18.587-244.712v0zM11.152 189.562l96.653-7.647-16.728-99.414-91.077 11.471 11.152 95.59zM163.211 402.417l26.022 74.561-85.5 34.413-27.881-80.296 87.359-28.677zM284.987 659.803l50.185 61.178-65.055 43.972-52.044-59.266 66.913-45.883zM417.185 898.242l44.609-55.442 61.337 36.324-44.609 51.619-61.337-32.501zM635.259 960l11.152-55.442 76.207 1.912-7.435 49.707-79.924 3.824zM893.118 901.486l-1.859-34.413 52.044-28.677 11.152 17.206-61.337 45.883zM881.778 755.2v-28.677l50.185-5.735v22.942l-50.185 11.471zM720.593 732.065l24.163-45.883 35.315 28.677-7.435 30.589-52.044-13.383zM645.848 667.429l37.174-57.354-22.305-40.148-53.902 61.178 39.033 36.324zM574.089 511.39l-24.163-49.707 63.196-55.443 14.87 63.090-53.902 42.060zM544.162 335.848l-3.717-66.913 78.066-34.413-3.717 63.090-70.631 38.236zM568.889 101.79l18.587-68.825 98.511-5.735-35.315 74.561h-81.783z" />
<glyph unicode="&#xe915;" glyph-name="ruby-logo" d="M284.209 44.117c223.216-32 442.466-63.428 666.071-95.471-76.182 133.171-150.406 262.938-225.223 393.762l-440.848-298.291zM1013.281 781.252c-19.675-31.027-39.391-62.029-59.043-93.073-67.486-106.607-134.965-213.214-202.386-319.872-3.755-5.939-8.623-10.65-3.332-19.806 65.146-112.956 129.78-226.244 194.576-339.43 10.224-17.877 20.561-35.686 33.784-52.838 13.101 274.714 26.193 549.436 39.286 824.149l-2.885 0.87zM123.953 429.056c3.048-3.029 10.654-4.796 14.198-2.961 62.488 32.247 125.375 63.778 186.498 98.679 19.935 11.375 35.263 31.77 52.435 48.307 56.865 54.758 113.64 109.628 170.39 164.506 3.47 3.371 7.582 6.63 9.655 10.88 20.382 41.83 40.415 83.874 61.156 127.13-24.73 9.762-48.177 19.311-71.916 27.998-3.218 1.178-8.29-1.161-11.776-3.2-54.947-32.23-110.925-62.746-164.124-97.894-26.616-17.587-48.299-43.503-71.867-66.074-37.986-36.403-75.922-72.892-113.355-109.926-9.931-9.83-18.985-21.060-26.722-32.887-25.6-39.142-50.436-78.848-76.41-119.68 14.515-15.761 27.713-30.831 41.838-44.877v0zM352.337 482.569c-31.086-137.89-61.985-275.004-93.915-416.623 149.723 101.299 295.993 200.26 441.295 298.556-115.631 39.296-230.888 78.473-347.38 118.067zM975.116 779.921c-126.505-22.195-249.986-43.853-375.060-65.792 42.602-108.809 84.35-215.433 127.285-325.086 83.066 131.063 164.49 259.499 247.775 390.878v0zM357.555 510.771c113.916-38.827 225.564-76.885 340.456-116.053-42.667 109.141-83.87 214.468-125.928 322.022-71.639-68.77-142.206-136.525-214.528-205.969zM128.658 348.646c-40.399-101.402-79.425-199.356-119.158-299.076 76.361 2.372 150.382 4.668 226.946 7.040-35.946 97.382-71.184 192.853-107.788 292.036v0zM239.128 125.961l2.812 0.649c27.25 118.963 54.89 237.107 82.708 360.721-62.058-33.869-121.255-66.167-182.069-99.362 31.037-84.702 64.13-174.054 96.549-262.007v0zM929.329 799.215c-36.238 10.078-72.476 20.19-108.731 30.199-52.11 14.387-104.261 28.595-156.339 43.11-6.51 1.818-11.215 3.004-15.043-5.231-18.408-39.595-37.384-78.891-56.084-118.34-0.577-1.22-0.455-2.799-0.902-5.862 112.851 17.954 224.947 35.797 337.026 53.632l0.073 2.492zM719.092 889.276l295.359-85.794c-16.937 50.679-32.646 97.673-48.803 146.005l-246.126-57.301-0.431-2.91zM264.168 21.274c-36.58 4.429-74.134 0.358-111.234-0.316-30.476-0.538-60.952-1.758-91.429-2.756-3.137-0.102-6.266-0.768-9.395-4.318 251.961-24.457 503.914-48.913 755.866-73.387l0.512 3.533c-80.766 11.58-161.54 23.159-242.306 34.731-100.645 14.43-201.118 30.302-302.015 42.513v0zM14.482 140.851c32.467 79.104 64.796 158.259 97.394 237.303 3.259 7.927 3.007 13.312-3.373 19.695-13.637 13.628-26.307 28.314-41.212 44.595-20.147-104.448-39.798-206.31-59.465-308.164l2.202-1.084c1.503 2.534 3.34 4.932 4.454 7.654v0zM654.401 910.157c54.751 14.831 110.299 26.428 165.522 39.364 3.576 0.845 7.070 2.082 10.589 3.14l-0.545 2.833c-77.783-10.982-155.559-21.973-237.259-33.519 22.276-10.214 39.44-17.843 61.692-11.819z" />
</font>
</defs>
</svg>
