<svg width="34" height="34" viewBox="0 0 34 34" xmlns="http://www.w3.org/2000/svg"><title>codepen-logo</title><g fill="#FFF" fill-rule="evenodd"><path d="M16.575 0C7.421 0 0 7.42 0 16.575s7.42 16.576 16.575 16.576 16.576-7.421 16.576-16.576C33.15 7.421 25.73 0 16.575 0zm0 30.428c-7.638 0-13.853-6.214-13.853-13.853 0-7.638 6.215-13.853 13.853-13.853 7.639 0 13.853 6.215 13.853 13.853 0 7.639-6.214 13.853-13.853 13.853z"/><path d="M26.816 13.338l-.007-.038a.869.869 0 0 0-.015-.074l-.014-.043a.91.91 0 0 0-.023-.064l-.02-.043a.687.687 0 0 0-.03-.058c-.007-.014-.016-.028-.024-.041a.817.817 0 0 0-.112-.14l-.035-.034a1.03 1.03 0 0 0-.05-.042l-.04-.03-.014-.01-9.368-6.246a.88.88 0 0 0-.977 0L6.719 12.72c-.005.003-.01.008-.015.01l-.04.031a.877.877 0 0 0-.05.042c-.012.01-.023.023-.035.035a.77.77 0 0 0-.136.18.827.827 0 0 0-.072.165l-.014.043c-.006.024-.01.049-.015.074-.002.013-.006.025-.007.038a.855.855 0 0 0-.008.115v6.245a.86.86 0 0 0 .008.115c.001.013.005.026.007.038a.88.88 0 0 0 .015.074l.014.043.022.064.02.043a1.085 1.085 0 0 0 .055.1.822.822 0 0 0 .111.138c.012.012.023.024.036.035a.804.804 0 0 0 .09.072c.004.003.009.008.014.01l9.368 6.246a.88.88 0 0 0 .977 0l9.368-6.245.015-.011.04-.03a.996.996 0 0 0 .05-.042l.034-.035a.848.848 0 0 0 .112-.139l.025-.04a.802.802 0 0 0 .03-.059l.02-.043.022-.064.014-.043a.844.844 0 0 0 .015-.074l.007-.038a.918.918 0 0 0 .008-.115v-6.245a.9.9 0 0 0-.008-.115zm-9.36-4.485l6.901 4.6-3.082 2.063-3.819-2.554V8.853zm-1.762 0v4.109l-3.818 2.554-3.083-2.062 6.901-4.6zm-7.606 6.248l2.204 1.474-2.204 1.475V15.1zm7.606 9.196l-6.9-4.6 3.082-2.062 3.819 2.554v4.108zm.881-5.638l-3.115-2.084 3.115-2.083 3.116 2.083-3.116 2.084zm.881 5.638V20.19l3.819-2.554 3.082 2.062-6.9 4.6zm7.607-6.248l-2.204-1.474 2.204-1.474v2.948z"/></g></svg>