<svg width="115" height="83" viewBox="0 0 115 83" xmlns="http://www.w3.org/2000/svg"><title>code</title><g fill="#FFF" fill-rule="evenodd"><path d="M112.367 0H2.554A2.56 2.56 0 0 0 0 2.565v60.279a2.56 2.56 0 0 0 2.554 2.565h37.668v14.108h-9.576c-.707 0-1.277.573-1.277 1.282 0 .71.57 1.283 1.277 1.283h53.629a1.28 1.28 0 0 0 1.277-1.283c0-.71-.57-1.282-1.277-1.282h-9.577V65.409h37.669a2.56 2.56 0 0 0 2.554-2.565V2.565A2.56 2.56 0 0 0 112.367 0zM2.554 2.565h109.813V5.13H2.554V2.565zm0 5.13h109.813V55.15H2.554V7.695zm40.222 71.822V65.409h29.369v14.108H42.776zm69.59-16.673H2.555v-5.13h109.813v5.13z"/><path d="M44.148 23.095a1.272 1.272 0 0 0-1.806 0l-9.029 9.069a1.285 1.285 0 0 0 0 1.813l9.03 9.07a1.27 1.27 0 0 0 1.805 0c.5-.502.5-1.313 0-1.814l-8.126-8.162 8.126-8.162c.5-.502.5-1.314 0-1.814zm28.302 0a1.272 1.272 0 0 0-1.806 0 1.286 1.286 0 0 0 0 1.814l8.127 8.162-8.127 8.162a1.285 1.285 0 0 0 0 1.813 1.27 1.27 0 0 0 1.806 0l9.029-9.069c.5-.501.5-1.312 0-1.813l-9.03-9.069zM49.617 45.518l16.906-22.435a1.279 1.279 0 0 0-.256-1.791 1.279 1.279 0 0 0-1.793.248L47.568 43.975a1.279 1.279 0 0 0 .256 1.791 1.279 1.279 0 0 0 1.793-.248z"/></g></svg>