<svg width="35" height="32" viewBox="0 0 35 32" xmlns="http://www.w3.org/2000/svg"><title>github-logo</title><path d="M22.906 18.714c-1.327 0-2.403 1.622-2.403 3.616 0 1.999 1.076 3.62 2.403 3.62s2.403-1.621 2.403-3.62c-.002-1.994-1.076-3.616-2.403-3.616zM31.271 9.3c.275-.734.286-4.903-1.174-8.898 0 0-3.347.4-8.41 4.181-1.063-.321-2.862-.478-4.656-.478-1.798 0-3.595.157-4.657.478C7.308.803 3.96.403 3.96.403 2.503 4.396 2.518 8.565 2.789 9.3 1.074 11.326.026 13.76.026 17.08c0 14.446 11.02 14.678 13.8 14.678.632 0 1.882.004 3.205.004 1.321 0 2.572-.004 3.2-.004 2.784 0 13.8-.232 13.8-14.678 0-3.32-1.045-5.755-2.76-7.781zM17.08 29.984h-.104c-6.969 0-12.399-.903-12.399-8.273 0-1.767.573-3.403 1.935-4.762 2.268-2.266 6.108-1.068 10.464-1.068h.105c4.356 0 8.198-1.198 10.467 1.068 1.359 1.359 1.932 2.995 1.932 4.762 0 7.37-5.428 8.273-12.4 8.273zm-5.927-11.27c-1.327 0-2.403 1.622-2.403 3.616 0 1.999 1.076 3.62 2.403 3.62 1.329 0 2.404-1.621 2.404-3.62 0-1.994-1.075-3.616-2.404-3.616z" fill="#FFF" fill-rule="evenodd"/></svg>