<svg width="134" height="75" viewBox="0 0 134 75" xmlns="http://www.w3.org/2000/svg"><title>web-resp</title><path d="M99.957 70.296c0-1.22.88-2.135 2.055-2.135 1.174 0 2.055.915 2.055 2.135 0 1.22-.881 2.135-2.055 2.135-1.175 0-2.055-.915-2.055-2.135zm23.925-55.352v13.418h-3.083V16.468H81.61v50.32h28.035v5.033c0 .915.294 1.525.88 2.134H80.289c-1.027 0-1.908-.914-1.908-2.134V14.944c0-1.22.88-2.135 1.908-2.135h41.686c1.174 0 1.908.915 1.908 2.135zM99.663 70.296c0 1.372 1.028 2.44 2.349 2.44 1.32 0 2.348-1.068 2.348-2.44 0-1.373-1.027-2.44-2.348-2.44s-2.349 1.067-2.349 2.44zm1.908-55.352c0-.305-.147-.458-.44-.458-.294 0-.44.153-.44.458 0 .305.146.457.44.457.293 0 .44-.305.44-.457zM66.344 26.075l-5.137 9.302-3.082-5.49L51.52 41.63h23.63l-8.807-15.554zm36.695 10.979l-3.23 5.642-1.907-3.355-3.963 7.32h14.237l-5.137-9.607zm20.55 9.302l-2.203 3.964-1.32-2.287-2.79 5.032h9.982l-3.67-6.71zm-1.762 21.653c-1.174 0-2.055.914-2.055 2.134 0 1.22.88 2.135 2.055 2.135 1.174 0 2.055-.915 2.055-2.135 0-1.22-1.028-2.134-2.055-2.134zm11.742-37.207v41.324c0 1.067-1.027 1.982-2.202 1.982H112.14c-1.174 0-2.201-.915-2.201-1.982V30.802c0-1.067 1.027-1.982 2.201-1.982h19.228c1.175 0 2.202.915 2.202 1.982zm-12.916.915c0 .152.146.305.293.305h2.789c.147 0 .293-.153.293-.305 0-.153-.146-.305-.293-.305h-2.789c-.293 0-.293.152-.293.305zm-1.762 0c0 .152.147.305.294.305s.293-.153.293-.305c0-.153-.146-.305-.293-.305s-.294.152-.294.305zm5.284 38.426c0-1.372-1.027-2.44-2.348-2.44s-2.349 1.068-2.349 2.44c0 1.373 1.028 2.44 2.349 2.44 1.32 0 2.348-1.067 2.348-2.44zm8.22-35.681h-21.136v32.022h21.136V34.462zM77.94 72.583v-4.422h-6.018v.457c0 .61-.587 1.22-1.468 1.22H55.336c-.88 0-1.468-.457-1.468-1.22v-.457H.588v2.592c0 1.83 1.907 3.355 4.109 3.355h73.976s-.733-.61-.733-1.525zm37.282-68.16v8.996h-4.404V4.575H14.825v58.554H77.94v4.27H10.42V4.575c0-2.288 1.908-4.118 4.11-4.118h96.58c2.35 0 4.11 1.83 4.11 3.965zM63.262 2.44c0-.305-.147-.458-.44-.458-.294 0-.44.153-.44.458 0 .305.146.457.44.457.293 0 .44-.152.44-.457z" fill="#FFF" fill-rule="evenodd"/></svg>